<svg height="471pt" viewBox="0 -39 471.58403 471" width="471pt" xmlns="http://www.w3.org/2000/svg"><path d="m272 125.402344h-16v-20.542969c-.105469-38.363281 15.140625-75.171875 42.34375-102.222656l11.3125 11.3125c-24.191406 24.058593-37.75 56.792969-37.65625 90.910156zm0 0" fill="#8d6339"/><path d="m196 .292969c39.765625 0 72 32.234375 72 72-39.765625 0-72-32.238281-72-72zm0 0" fill="#8ac03f"/><path d="m160 152.292969h-40c-48.601562 0-88-39.398438-88-88v-40h40c48.601562 0 88 39.398437 88 88zm0 0" fill="#8ac03f"/><path d="m165.65625 146.636719-61.65625-61.65625v-36.6875h-16v20.6875l-26.34375-26.34375-11.3125 11.3125 26.34375 26.34375h-20.6875v16h36.6875l61.65625 61.65625zm0 0" fill="#c6db5b"/><path d="m189.238281 80.292969c-37.527343 0-71.839843 21.207031-88.621093 54.773437-8.296876 16.589844-12.617188 34.878906-12.617188 53.425782 0 28.871093 6.128906 57.414062 17.976562 83.742187l35.625 79.257813c11.191407 24.859374 35.9375 40.832031 63.199219 40.800781 7.4375 0 14.828125-1.199219 21.886719-3.554688l37.3125-12.445312 37.34375 12.445312c7.046875 2.351563 14.425781 3.550781 21.855469 3.554688 27.265625.03125 52.007812-15.941407 63.199219-40.800781l35.65625-79.199219c11.847656-26.347657 17.960937-54.914063 17.945312-83.800781 0-18.546876-4.320312-36.835938-12.617188-53.425782-16.78125-33.566406-51.089843-54.773437-88.621093-54.773437-22.503907-.003907-44.335938 7.65625-61.90625 21.710937l-12.855469 10.289063-12.855469-10.289063c-17.570312-14.054687-39.402343-21.714844-61.90625-21.710937zm0 0" fill="#ec4042"/><path d="m205.449219 273.675781c11.769531 51.496094-20.273438 102.828125-71.707031 114.867188-51.433594 12.039062-102.929688-19.738281-115.238282-71.105469-12.105468-51.625-3.488281-155.296875 58.832032-169.882812 62.320312-14.582032 116.03125 74.496093 128.113281 126.121093zm0 0" fill="#89b33b"/><path d="m175.976562 295.554688c0 35.347656-28.65625 64-64 64-35.347656 0-64-28.652344-64-64 0-35.34375 28.652344-64 64-64 35.34375 0 64 28.65625 64 64zm0 0" fill="#fae100"/><path d="m17.601562 392.292969h353.0625c13.660157 0 26.765626-5.425781 36.425782-15.089844l4.496094-4.496094c20.085937-20.109375 20.085937-52.691406 0-72.800781-12.230469-12.226562-29.777344-17.503906-46.722657-14.046875l-350.765625 71.550781c-8.214844 1.671875-14.113281 8.898438-14.097656 17.28125 0 9.722656 7.878906 17.601563 17.601562 17.601563zm0 0" fill="#ffc117"/><path d="m465.648438 328.125-3.296876-15.664062-18.398437 3.878906 10.65625-15.527344-13.203125-9.039062-21.949219 32c-2.125 3.09375-1.8125 7.25.75 9.992187l29.960938 32 11.679687-10.945313-20.253906-21.601562zm0 0" fill="#8ac03f"/><path d="m456.417969 142.53125c-1.582031-4.691406-3.40625-9.296875-5.464844-13.800781l14.542969-6.65625c2.296875 5.007812 4.328125 10.132812 6.089844 15.355469zm0 0" fill="#ccdde6"/><path d="m443.199219 114.195312c-22.359375-36.164062-61.917969-58.097656-104.4375-57.902343-3.402344 0-6.777344.144531-10.152344.421875l-1.351563-15.933594c3.816407-.328125 7.652344-.488281 11.503907-.488281 48.054687-.214844 92.765625 24.578125 118.039062 65.453125zm0 0" fill="#ccdde6"/><g fill="#fdad2a"><path d="m134.726562 362.988281c3.394532-9.441406 4.914063-19.449219 4.472657-29.472656v-1.601563l-16 3.265626c.222656 7.636718-.976563 15.25-3.535157 22.449218zm0 0"/><path d="m174.785156 350.691406 15.070313 5.394532c3.921875-11.019532 5.328125-22.773438 4.121093-34.402344l-.074218-.96875-15.8125 3.199218c.863281 9.0625-.261719 18.199219-3.304688 26.777344zm0 0"/><path d="m229.902344 343.84375 15.074218 5.375c4.464844-12.601562 5.660157-26.128906 3.480469-39.320312l-.050781-.300782-15.710938 3.199219c1.6875 10.417969.726563 21.09375-2.792968 31.046875zm0 0"/><path d="m285.023438 336.964844 15.074218 5.375c5.003906-14.066406 5.90625-29.265625 2.597656-43.824219l-15.664062 3.199219.046875.199218c2.667969 11.640626 1.953125 23.800782-2.054687 35.050782zm0 0"/><path d="m348.183594 318.738281-.800782 3.050781 15.472657 4.054688.800781-3.054688c3.121094-12.0625 3.359375-24.6875.695312-36.855468l-15.640624 3.199218v.101563c2.152343 9.742187 1.972656 19.851563-.527344 29.503906zm0 0"/></g></svg>